<svg xmlns="http://www.w3.org/2000/svg" width="100%" height="100%" preserveAspectRatio="none" viewBox="0 0 213.861 44">
  <g id="Group_245" data-name="Group 245" transform="translate(3258.822 72.058)">
    <path id="Path_14004" data-name="Path 14004" d="M-3051.87-67.827l1.479-.325a44.586,44.586,0,0,1-5.176-.246C-3058.525-68.152-3054.088-67.909-3051.87-67.827Z" transform="translate(-52.68 -1.191)" fill="#f53131"/>
    <path id="Path_14005" data-name="Path 14005" d="M-3046.574-64.805c.17-.366.344-.645.53-.576.184.046.378.567.586,1.44.012-.237.03-.46.052-.673.028-.251.054-.491.079-.726.064-.5.125-.971.19-1.474a22.891,22.891,0,0,0,.155-3.838c-.007-.051-.013-.1-.02-.147-3.505.181-6.165.261-8.6.282l-1.543.005-1.425-.013c-.933-.014-1.837-.037-2.733-.064-3.581-.108-7.02-.281-11.632-.176,1.245.1-.616.268-.9.4-12.951-.276,4.007-1.932-13.782-1.527a14.711,14.711,0,0,0-4.011.365c-.878-.021-1.7-.066.451-.163-12.119-.3-1.611.182-8.889.546l8.419-.345c.006.041.093.084.267.127a62.787,62.787,0,0,0,8.066.323c-.062.193,5.807.185,2.348.582-8.135-.133-11.973.591-18.558.424l-2.152.3c-1.611,0-4.7.128-7.637.165h-2.66c-.724-.012-1.4-.035-2-.075-10.143-.212.743-.652,1.111-.977l-8.376-.19c-9.712.73-15.985-1.032-24.224-.145l.841-.21c4.708-.3-1.51-.791-4.841-.778l-2.618.186c-4.138.857-16.471.313-24.74.565-1.774-.023-2.485-.2-.939-.232l-9.076-.364c-2.6.821-6.652.025-12.06.149-3.71.338-4.845.683-9.794.922-12.563-.6-20.031.268-31.287-.428-1.744.612-8.7.771-3.325,1.472-2.69-.084-5.315-.184-7.9-.291l-8.723-.332c-.179,2.273-.357,4.532-.537,6.807-.158,2.033-.287,4.082-.365,6.178.136.538.282,1.114.415,1.639a19.689,19.689,0,0,1,1.558,2.113V-33.7c-.024.081-.046.159-.069.243a2.53,2.53,0,0,0,.546.131q1.672.21,3.837.409l4.476.386c2.864.248,5.891.48,9.049.693,6.316.426,13.161.776,20.292,1.033,2.719-.232,5.555-.455,8.754-.633l8.92.543c8.889,0,19.386-.189,24.994-.98,1.624.12,1.63.242,3.254.362,3.215-.244,9.7,0,12.9-.43,4.053.241,4.079.606,6.528.97,8.861-.369,20.233.6,29.079-.011,4.114,1.032,12.894-.612,17.808.358,9.718.361,20.2-.068,22.577-.737.01.182-3.192.669.87.911.8-.062,2.412-.122,2.412-.183.8,0,8.092.3,10.5,0,.988-.113,1.288-.2,1.06-.3-6.082-.51.265-1.573,7.576-2.568h12.939c.09.129.183.131.271,0h1.459v-9.031c.073.388.168.664.307.685.7.985,1.065-4.871,1.218-7.452-.412-2.674-.572,1.649-.665,3.539l-.859-3.193v-2.694c.073-.3.164-.485.265-.467.317-1.176,1.13.184,1.026-1.921.167-6.06-1.044-.344-1.106-5.406a1.639,1.639,0,0,0-.185.336v-5.114C-3046.739-64.427-3046.657-64.63-3046.574-64.805Z" transform="translate(0 -0.034)" fill="#f53131"/>
    <path id="Path_14006" data-name="Path 14006" d="M-3163.8,12.262c-5.906-.082-10.347.571-16.253.163,0,.652,7.389.9,9.6,1.224C-3166.008,13.322-3160.837,12.671-3163.8,12.262Z" transform="translate(-20.201 -41.707)" fill="#f53131"/>
    <path id="Path_14007" data-name="Path 14007" d="M-3054.224-72.058l-6.8.057,1.5.547C-3053.98-71.129-3057.976-72.018-3054.224-72.058Z" transform="translate(-51.473)" fill="#f53131"/>
  </g>
</svg>
