<svg id="fear-logo-new" xmlns="http://www.w3.org/2000/svg" xmlns:xlink="http://www.w3.org/1999/xlink" width="159.871" height="91.062" viewBox="0 0 159.871 91.062">
  <defs>
    <clipPath id="clip-path">
      <rect id="Rectangle_1" data-name="Rectangle 1" width="159.871" height="91.062"/>
    </clipPath>
    <clipPath id="clip-path-2">
      <path id="Path_2" data-name="Path 2" d="M-61.2-269.27c-1.791,1.727-4.221,2.494-6.523,3.261-2.558.831-5.18,1.663-7.738,2.494a30.94,30.94,0,0,1-5.308,1.407c-2.75.384-5.564-.064-8.313,0a24.7,24.7,0,0,0-14.9,5.627c-3.133,2.622-5.883,6.842-4.6,10.871,1.279,4.157,6.2,5.819,10.168,4.86s7.29-3.773,10.679-6.2,7.354-4.6,11.383-3.9c1.023,2.11-1.279,4.54-.959,6.906.256,1.854,2.046,3.006,3.709,3.389,1.727.384,3.453.128,5.18.512,4.6,1.023,7.482,5.883,9.72,10.232,1.407,2.75,2.878,5.5,4.285,8.249,1.854,3.645,3.837,7.482,3.645,11.639-.128,2.814-1.215,5.883.064,8.377a6.286,6.286,0,0,0,5.116,3.006c4.8.512,9.592-2.366,12.086-6.779a18.456,18.456,0,0,0,1.087-14.836,6.083,6.083,0,0,1-.576-2.75,4.76,4.76,0,0,1,.767-1.854c3.325-5.947,6.651-11.958,10.04-17.969,3.133,5.819,3.517,12.854,5.052,19.376s5.052,13.429,11.191,15.028c2.75.767,6.523-.512,6.651-3.517.192-2.814-2.75-4.54-4.285-6.906A13.661,13.661,0,0,1-5.24-224.57c-1.023-7.226-2.11-14.452-3.133-21.615a9.638,9.638,0,0,1-.064-3.581c.384-1.279.959-.9,2.11-1.471a19.561,19.561,0,0,1,10.1-2.046c1.151.128,5.563,1.215,6.715,1.087,1.982-5.244-2.622-16.627-2.814-21.742-.128-3.9-.512-1.663-1.854-5.308s-2.366-6.587-5.947-7.226c-3.837-.7-7.546,1.663-11.255,2.942-4.412,1.6-9.209,1.727-13.877,1.918-6.906.256-13.877.448-20.847.7-3.517.128-9.017-.064-11.894,2.494C-60.236-276.113-58.382-271.956-61.2-269.27Z" transform="translate(108.902 286.6)"/>
    </clipPath>
    <clipPath id="clip-path-3">
      <path id="Path_4" data-name="Path 4" d="M155.471-269.27c1.791,1.727,4.221,2.494,6.523,3.261,2.558.831,5.18,1.663,7.738,2.494a30.94,30.94,0,0,0,5.308,1.407c2.75.384,5.563-.064,8.313,0a24.7,24.7,0,0,1,14.9,5.627c3.133,2.622,5.883,6.842,4.6,10.871-1.279,4.157-6.2,5.819-10.168,4.86s-7.29-3.773-10.679-6.2-7.354-4.6-11.383-3.9c-1.023,2.11,1.279,4.54.959,6.906-.256,1.854-2.046,3.006-3.709,3.389-1.727.384-3.453.128-5.18.512-4.6,1.023-7.482,5.883-9.72,10.232-1.407,2.75-2.878,5.5-4.285,8.249-1.855,3.645-3.837,7.482-3.645,11.639.128,2.814,1.215,5.883-.064,8.377a6.286,6.286,0,0,1-5.116,3.006c-4.8.512-9.592-2.366-12.086-6.779a18.456,18.456,0,0,1-1.087-14.836,6.083,6.083,0,0,0,.576-2.75,4.76,4.76,0,0,0-.767-1.854c-3.325-5.947-6.651-11.958-10.04-17.969-3.133,5.819-3.517,12.854-5.052,19.376s-5.052,13.429-11.191,15.028c-2.75.767-6.523-.512-6.651-3.517-.192-2.814,2.75-4.54,4.285-6.906a13.661,13.661,0,0,0,1.663-5.819c1.023-7.226,2.11-14.452,3.133-21.615a9.638,9.638,0,0,0,.064-3.581c-.384-1.279-.831-1.087-1.982-1.663-3.07-1.6-4.6-1.982-8.7-2.366-1.151-.128-7.162,1.727-8.313,1.6-1.982-5.244,2.622-16.627,2.814-21.742.128-3.9.512-1.663,1.854-5.308s2.366-6.587,5.947-7.226c3.837-.7,7.546,1.663,11.255,2.942,4.412,1.6,9.209,1.727,13.877,1.918,6.906.256,13.877.448,20.847.7,3.517.128,9.017-.064,11.894,2.494C154.448-276.113,152.594-271.956,155.471-269.27Z" transform="translate(-83.227 286.6)"/>
    </clipPath>
    <clipPath id="clip-path-4">
      <path id="Path_10" data-name="Path 10" d="M55.877,92.989c2.366-1.215,14.26-5.18,22-4.54l3.006-37.921L10.282,44.9,2.8,126.946l42.654,13.365,4.86-46.938h4.6Z" transform="translate(-2.8 -44.9)"/>
    </clipPath>
    <clipPath id="clip-path-5">
      <path id="Path_16" data-name="Path 16" d="M151.4,92.989c-2.366-1.215-14.26-5.18-22-4.54L126.4,50.527,197,44.9l7.482,82.046-42.654,13.365-4.86-46.938h-4.6A7.443,7.443,0,0,1,151.4,92.989Z" transform="translate(-126.4 -44.9)"/>
    </clipPath>
  </defs>
  <g id="Group_26" data-name="Group 26">
    <g id="white-logo" clip-path="url(#clip-path)">
      <g id="Group_6" data-name="Group 6" transform="translate(-69.641 -217.68)">
        <g id="Group_5" data-name="Group 5">
          <g id="Group_4" data-name="Group 4">
            <g id="Group_3" data-name="Group 3">
              <g id="Group_2" data-name="Group 2">
                <g id="Group_1" data-name="Group 1" clip-path="url(#clip-path-2)">
                  <path id="Path_1" data-name="Path 1" d="M-4.706-251.386s.639-1.215,1.535-2.814c2.622,2.622,3.389,5.18,4.412,6.331.192.256,3.261.256,3.517.384,0-.064.064-.064.064-.128A5.879,5.879,0,0,1,6.8-249.6l.064-.064c.448-.384.256,0,.831-.192a31.333,31.333,0,0,0-1.471-4.668A109.475,109.475,0,0,0,2.84-265.2a30.257,30.257,0,0,0,1.407-4.732s3.006,6.267,3.389,9.081c.256,1.855,1.6,3.837,1.087,10.424.831-.128,5.5-.512,6.331-.576,0-5.18-2.3-11.127-2.43-11.83-.192-.959-4.86-9.72-4.86-9.72s.576-5.883-2.046-5.947c-2.622,0-4.221,2.878-4.221,2.878S.537-273.7-.614-271.21c-1.727-2.558-3.261-5.052-4.924-4.732a16.962,16.962,0,0,0-4.029,1.407,47.756,47.756,0,0,0-6.011.7c-2.43.448-1.6,1.279-5.436,1.151s-17.522.7-18.737.064-1.215-.576-1.215-.576l-1.215-.639-.831,1.151-1.023-1.023a2.946,2.946,0,0,1-1.215,2.686,3.526,3.526,0,0,0-1.407,2.814s-1.854,2.878-4.157,6.395c-.512.128-.9.192-1.087.256-1.279.576-3.837,1.854-3.837,1.854a41.7,41.7,0,0,0-5.436,1.151c-3.645.959-35.427,12.982-35.427,12.982s39.584-12.022,43.485-12.79h0c-2.366,3.581-4.732,7.034-5.755,8.377-2.494,3.2-6.906,9.528-6.906,9.528s8.7-10.36,15.284-18.289c5.18-.576,14.388-1.087,21.742-1.982a58.463,58.463,0,0,1,8.953-.512c-2.686,2.494-8.889,8.441-12.79,13.813-5.052,6.906-6.459,7.354-6.459,11.511s-1.6,30.5-.831,33.445c0,0,1.407-28.521,2.43-30.5a16.755,16.755,0,0,0,1.407-4.348s1.023.384,1.6-1.023,5.627-9.017,7.226-10.168,4.412-2.75,4.412-2.75,2.622-4.54,4.221-5.052c1.151-.384,3.9-2.878,5.372-4.348,4.988,1.087,6.459,2.942,6.459,2.942a34.711,34.711,0,0,1-1.791,4.285,13.249,13.249,0,0,0-1.215,2.494,24.441,24.441,0,0,1,1.6,11.127c-.384,6.715-.831,11.063-.192,12.662.576,1.6,6.842,15.475,6.842,15.475s-4.412-14.836-4.221-16.818C-5.282-230.411-4.834-250.107-4.706-251.386Zm4.476-8.249c.831,1.854,1.663,3.9,2.558,5.883L-1-258.228C-.741-258.676-.486-259.188-.23-259.635Zm-13.3-8.569a17.658,17.658,0,0,1-2.814.7,25.149,25.149,0,0,0-5.244,2.238s-4.412.448-10.488,1.151c-4.029.448-10.871,1.215-15.412,1.791,1.854-2.238,3.261-3.965,3.9-4.8l1.343-1.087s12.982.192,19.376-.384c4.348-.448,7.418-.831,9.784-1.023C-13.339-268.908-13.531-268.2-13.531-268.2Zm4.8.7a16.726,16.726,0,0,1-1.535-2.174A7.116,7.116,0,0,1-6.113-268.2a14.748,14.748,0,0,1,2.75,2.878c-.384.9-.767,1.727-1.151,2.558C-5.538-263.984-7.84-266.542-8.735-267.5Z" transform="translate(104.467 283.68)" fill="#fff"/>
                </g>
              </g>
            </g>
          </g>
        </g>
      </g>
      <g id="Group_12" data-name="Group 12" transform="translate(53.222 -217.68)">
        <g id="Group_11" data-name="Group 11">
          <g id="Group_10" data-name="Group 10">
            <g id="Group_9" data-name="Group 9">
              <g id="Group_8" data-name="Group 8">
                <g id="Group_7" data-name="Group 7" clip-path="url(#clip-path-3)">
                  <path id="Path_3" data-name="Path 3" d="M104.5-228.293c.192,1.982-4.221,16.818-4.221,16.818s6.267-13.877,6.842-15.475.192-5.947-.192-12.662a25.824,25.824,0,0,1,1.6-11.127,13.249,13.249,0,0,0-1.215-2.494,23.8,23.8,0,0,1-1.791-4.285s1.471-1.854,6.459-2.942c1.535,1.471,4.285,3.965,5.372,4.348,1.6.512,4.221,5.052,4.221,5.052a44.542,44.542,0,0,1,4.412,2.75c1.6,1.151,6.651,8.761,7.226,10.168s1.6,1.023,1.6,1.023a16.755,16.755,0,0,0,1.407,4.348c1.023,1.982,2.43,30.5,2.43,30.5.831-3.006-.831-29.288-.831-33.445s-1.407-4.54-6.459-11.511a114.454,114.454,0,0,0-12.79-13.813,58.463,58.463,0,0,1,8.953.512c7.354.9,16.563,1.343,21.742,1.982,6.587,7.93,15.284,18.289,15.284,18.289s-4.412-6.331-6.906-9.528c-1.087-1.343-3.389-4.86-5.755-8.377h0c3.9.831,43.485,12.79,43.485,12.79s-31.782-12.022-35.427-12.981a41.71,41.71,0,0,0-5.436-1.151s-2.558-1.215-3.837-1.854a4.451,4.451,0,0,0-1.087-.256c-2.3-3.517-4.157-6.395-4.157-6.395a3.526,3.526,0,0,0-1.407-2.814,2.946,2.946,0,0,1-1.215-2.686l-1.023,1.023-.831-1.151-1.215.639-1.215.576c-1.215.576-14.9-.192-18.737-.064s-3.006-.7-5.436-1.151-6.011-.7-6.011-.7a18.337,18.337,0,0,0-4.029-1.407c-1.663-.32-3.2,2.174-4.924,4.732-1.215-2.494-2.11-4.412-2.11-4.412s-1.6-2.942-4.221-2.878c-2.622,0-2.046,5.947-2.046,5.947s-4.6,8.761-4.86,9.72c-.128.7-2.43,7.93-1.982,11.766.9,0,5.372.192,6.267.32-.512-6.523.512-8.249.767-10.1.384-2.814,3.389-9.081,3.389-9.081A28.258,28.258,0,0,0,96-265a82.907,82.907,0,0,0-3.389,10.679,33.112,33.112,0,0,0-1.151,4.668c.512.192,7.1.9,7.29.639,1.535-2.622.7-2.494,3.2-4.988.9,1.663,1.535,2.814,1.535,2.814C103.8-250.035,104.311-230.339,104.5-228.293Zm-4.54-29.864-3.325,4.476c.9-2.046,1.727-4.029,2.558-5.883C99.451-259.116,99.707-258.6,99.963-258.157Zm12.022-11.383c2.366.192,5.436.576,9.784,1.023,6.395.639,19.376.384,19.376.384l1.343,1.087c.639.831,2.11,2.622,3.9,4.8-4.476-.576-11.383-1.343-15.412-1.791-6.011-.7-10.488-1.151-10.488-1.151a23.613,23.613,0,0,0-5.244-2.238,17.658,17.658,0,0,1-2.814-.7A6.765,6.765,0,0,0,111.985-269.54ZM103.48-262.7c-.32-.767-.7-1.663-1.151-2.558a13.145,13.145,0,0,1,2.75-2.878,7.583,7.583,0,0,1,4.157-1.471,16.727,16.727,0,0,1-1.535,2.174C106.805-266.47,104.567-263.912,103.48-262.7Z" transform="translate(-83.545 283.608)" fill="#fff"/>
                </g>
              </g>
            </g>
          </g>
        </g>
      </g>
      <path id="Path_5" data-name="Path 5" d="M85.555-226.875A10.147,10.147,0,0,0,86-228.154h.128a5.169,5.169,0,0,1,.064,1.023,5.169,5.169,0,0,1-.064,1.023c-.064.384-.064.7-.128,1.087a7.122,7.122,0,0,0-.128,1.087c0,.192-.064.384-.064.576a1.77,1.77,0,0,1-.064.576.426.426,0,0,1-.32.448,1.892,1.892,0,0,1-.639.128h-.639a17.734,17.734,0,0,1,.639-1.663,4.905,4.905,0,0,0,.448-1.727A2.911,2.911,0,0,1,85.555-226.875ZM80.312-216.9a6.3,6.3,0,0,0,.128,1.087,1.031,1.031,0,0,0,.256-.448,3.117,3.117,0,0,1,.192-.448,4.4,4.4,0,0,1,.7-.831,7.663,7.663,0,0,0,.7-.767l.064.064a1.527,1.527,0,0,0-.128.576v.512c0,.192.064.32.064.512a1.336,1.336,0,0,0,.512-.639,5.4,5.4,0,0,0,.32-1.087l.192-1.151a2.988,2.988,0,0,1,.256-.9l.064.064v1.535l.064.128a.623.623,0,0,0,.256-.576.893.893,0,0,1,.192-.576h.128q.1,0,.192-.192c.064-.128.128-.256.192-.256l.064.064.064.7.064.064a1.4,1.4,0,0,0,.192-.32.343.343,0,0,1,.256-.192h.128l-.192,1.791H85.3l.256-.256v.831c0,.384.064.7.064,1.023a2.157,2.157,0,0,0,.256.767l.128-.128a4.71,4.71,0,0,0,.256-.9c.064-.32.192-.639.256-.9l.32.639h.128c.064-.256.128-.576.192-.831s.064-.576.128-.831a.553.553,0,0,1,.192-.384.352.352,0,0,0,.192-.32c.064-.32.064-.7.128-1.023s.064-.7.128-1.023v-.512a1.376,1.376,0,0,1,0-.512.235.235,0,0,1,.064-.192.235.235,0,0,0,.064-.192,19.342,19.342,0,0,0,.128-2.75,19.874,19.874,0,0,1,.192-2.75,1.022,1.022,0,0,1,.32-.639,3.515,3.515,0,0,0,.576-.448,1.021,1.021,0,0,0,.448-.576.5.5,0,0,0-.192-.064,1.82,1.82,0,0,0-.831,0c-.256,0-.512.064-.831.064H86.195c-.576,0-1.151-.064-1.663-.064a2.868,2.868,0,0,1-.7-.064,1.782,1.782,0,0,0-.639.064c-.064.064-.128.064-.192.192,0,.128.064.192.192.256a4.4,4.4,0,0,0,.512.192,1.147,1.147,0,0,1,.448.32.7.7,0,0,1,.128.639.425.425,0,0,1-.256.32,14.084,14.084,0,0,0-.576,1.343,6.283,6.283,0,0,0-.32,1.407v.384c0,.064-.064.128-.064.192a4.847,4.847,0,0,0-.576,1.023,11.023,11.023,0,0,0-.448,1.343,4.3,4.3,0,0,0-.192,1.151v.32c0,.064,0,.128-.064.128-.064.064-.064.064-.064.128a3.417,3.417,0,0,0-.384.9c-.064.256-.128.512-.192.7a1.51,1.51,0,0,1-.384.576,2.222,2.222,0,0,1-.959.512v.128l.7.256C80.312-217.6,80.312-217.218,80.312-216.9Z" transform="translate(-28.769 48.587)" fill="#fff"/>
      <path id="Path_6" data-name="Path 6" d="M68.2-217.531c.256-.064.512-.064.7-.128a3.21,3.21,0,0,1,.767-.128,1.364,1.364,0,0,1,.767.192,1.173,1.173,0,0,1,.448.639c.064-.064.064-.192.128-.384s.128-.32.192-.512c.064-.128.192-.256.256-.256a.892.892,0,0,1,.576.256,1.506,1.506,0,0,0,.639.32l.128-.064a.726.726,0,0,1,.512.192,3.859,3.859,0,0,1,.512.512,1.494,1.494,0,0,0,.448.448,3.67,3.67,0,0,1,.064-.767,4.84,4.84,0,0,1,.064-.959,1.974,1.974,0,0,1,.128-.7v-.064c0-.128-.064-.32-.064-.448a.948.948,0,0,1-.064-.448,2.635,2.635,0,0,1-.064-.767,5.017,5.017,0,0,0-.128-.9,1.2,1.2,0,0,0-.256-.639,1.216,1.216,0,0,0-.448.7c-.064.256-.064.512-.128.767a1.818,1.818,0,0,1-.256.767,1.3,1.3,0,0,1-.448.384,3.8,3.8,0,0,0-.512.256,3.667,3.667,0,0,0-.256-.448,1.086,1.086,0,0,0-.384-.384v-.256c0-.128-.064-.256-.064-.384a.811.811,0,0,1-.064-.384.811.811,0,0,1,.064-.384,1.088,1.088,0,0,0-.064-.448c0-.128-.064-.32-.064-.448v-.448a1.186,1.186,0,0,1,.128-.448,1.341,1.341,0,0,1,.7.256,2.3,2.3,0,0,1,.448.639,5.624,5.624,0,0,0,.384.639,2.043,2.043,0,0,0,.192-.9c0-.128-.064-.256-.064-.448a.948.948,0,0,1-.064-.448A9.444,9.444,0,0,1,73-224.885a9.445,9.445,0,0,0-.064-1.343.577.577,0,0,0-.064-.32.332.332,0,0,0-.128-.256.86.86,0,0,0-.384.448l-.192.576a1.285,1.285,0,0,1-.256.512,1.484,1.484,0,0,1-.639.256,1.77,1.77,0,0,1-.064-.576c0-.192-.064-.384-.064-.576a12.322,12.322,0,0,1-.064-1.535,12.322,12.322,0,0,1,.064-1.535l.128-.064a.456.456,0,0,1,.384.192c.064.128.192.256.256.384a.909.909,0,0,0,.128-.384c.064-.128.064-.256.128-.384H72.3a3.117,3.117,0,0,0,.256.7,1.289,1.289,0,0,1,.192.7c0,.128.064.128.128.128.128,0,.192-.128.256-.32a1.248,1.248,0,0,0,.064-.448h.128v.256a3.372,3.372,0,0,0,.192.767,4.3,4.3,0,0,0,.448.7.811.811,0,0,0,.064-.384c0-.128.064-.256.064-.384.128-.639.192-1.279.32-1.918s.192-1.279.384-1.918q-.767.1-1.727.192c-.639.064-1.343.128-2.046.256a16.082,16.082,0,0,0-1.982.32,6.358,6.358,0,0,0-1.535.448c0,.192.064.256.256.384.128.064.32.192.448.256a.794.794,0,0,1,.384.512l.192.576a2.175,2.175,0,0,1,.064.639l.256,3.581v.576c0,.192-.064.384-.064.512a13.366,13.366,0,0,0-.064,1.6c.064.512.064,1.087.128,1.6a2.606,2.606,0,0,1,0,1.023,1.041,1.041,0,0,1-.192.384,1.4,1.4,0,0,1-.32.256,1.7,1.7,0,0,0-.384.7Z" transform="translate(-24.335 49.092)" fill="#fff"/>
      <path id="Path_7" data-name="Path 7" d="M54.884-227.773c.192.064.32.192.512.256a.525.525,0,0,1,.32.32,8.05,8.05,0,0,1,.256,1.727c0,.576.128,1.151.128,1.727a12.419,12.419,0,0,1,.128,1.535c.064.512.064,1.023.128,1.535a.924.924,0,0,0,.128.448,1.186,1.186,0,0,1,.128.448,4.97,4.97,0,0,1,.128,1.023c.064.32.064.7.128,1.023a.332.332,0,0,0,.128.256c.064.064.064.192.128.256.064.32.128.7.192,1.023a7.953,7.953,0,0,0,.256,1.023,3.21,3.21,0,0,1,.128.767c.064.256.128.512.192.7a3.371,3.371,0,0,0,.32-.959c.064-.32.128-.7.192-.959a2.134,2.134,0,0,1,.32-.767c.064-.128.128-.192.064-.32a.909.909,0,0,0-.128-.384c-.064-.128-.128-.192-.128-.32a.54.54,0,0,1,.128-.448,1.186,1.186,0,0,0,.128-.448c0-.064,0-.128-.064-.128-.064-.064-.128-.128-.128-.192s-.064-.192-.064-.256v-.384a.576.576,0,0,0,.064-.32,2.438,2.438,0,0,0-.064-.959,1.344,1.344,0,0,1,.128-.959h.384a.352.352,0,0,1,.32.192,5.532,5.532,0,0,1,.448.639,5.626,5.626,0,0,0,.384.639l.128-.064c0-.128.064-.256.064-.384a.811.811,0,0,0,.064-.384c0-.128-.064-.256-.064-.384a.576.576,0,0,1-.064-.32c0-.192-.064-.384-.064-.512v-.512l-.192-2.11c0-.064-.064-.064-.128-.192a1.3,1.3,0,0,0-.384.448l-.192.576a3.8,3.8,0,0,1-.256.512,1.2,1.2,0,0,1-.639.256l-.192-1.151a7.343,7.343,0,0,1-.064-1.215,6.336,6.336,0,0,1,.128-1.151l.448.128a1.338,1.338,0,0,1,.256-.384.553.553,0,0,1,.384-.192h.384c.064,0,.128-.064.192-.064a.235.235,0,0,1,.192-.064.235.235,0,0,1,.192.064c.064.064.128.064.128.128a.223.223,0,0,1,.128.064c.064.064.064.064.064.128v.32a.581.581,0,0,0,.192.448l.256.256a.352.352,0,0,1,.192.32,7.323,7.323,0,0,1,.064-2.046,18.339,18.339,0,0,1,.32-1.982l-.384.064a9.175,9.175,0,0,0-1.407.256,10.841,10.841,0,0,1-1.407.256c-.639.128-1.279.192-1.918.32s-1.279.192-1.918.384c-.064,0-.064,0-.128.064l-.064.064A2.025,2.025,0,0,0,54.884-227.773Z" transform="translate(-19.648 48.334)" fill="#fff"/>
      <path id="Path_8" data-name="Path 8" d="M97.185-225.967a.909.909,0,0,1,.128-.384c.064-.128.128-.192.256-.128.128,0,.256.128.32.384l.192.767a2.2,2.2,0,0,1,.064.576l.128.064a.924.924,0,0,0,.128-.448v-.448c0-.128.064-.256.064-.384a.5.5,0,0,1,.256-.256,1.7,1.7,0,0,0,.32.384c.128.128.256.32.384.448s.192.256.128.384c0,.128-.064.256-.064.384-.064.128-.064.256-.128.384a4.092,4.092,0,0,1-.32.959,1.724,1.724,0,0,1-.448.512c-.192.128-.448.384-.767.639a.332.332,0,0,1-.128-.256v-.32a.655.655,0,0,0-.32.384,1.186,1.186,0,0,0-.128.448,1.7,1.7,0,0,1-.32.384v-1.982c.064-.639.064-1.279.128-1.982A.967.967,0,0,0,97.185-225.967ZM92.9-215.159c.064,0,.128.064.256.064h1.663a4.317,4.317,0,0,1,.9.128c.256.064.576.064.9.128h.576c.192-.064.384-.064.576-.128a1.123,1.123,0,0,0-.256-.32c-.128-.128-.256-.192-.384-.32s-.192-.192-.192-.256c0-.32.064-.7.064-1.023a5.5,5.5,0,0,0,.064-1.023.483.483,0,0,0-.064-.256.479.479,0,0,1-.064-.32l.064-.767a1.867,1.867,0,0,1,.128-.576c.064-.192.256-.256.512-.256a.85.85,0,0,1,.448.192c.192.128.384.256.384.32a1.394,1.394,0,0,1,.064.384c0,.192.064.448.064.767,0,.256.064.512.064.767v.448a.385.385,0,0,1-.064.256.384.384,0,0,0-.064.256v.192a.235.235,0,0,0,.064.192v1.407a4.531,4.531,0,0,0,.064.9,3.614,3.614,0,0,1,0,.831.924.924,0,0,0,.128.448.924.924,0,0,1,.128.448v1.023l.192-.128c.128-.576.256-1.087.384-1.663s.192-1.087.32-1.663l.256.192.384-1.535a13.893,13.893,0,0,1,.448-1.535.479.479,0,0,0,.064-.32v-.32c0-.128.064-.192.064-.32a.577.577,0,0,0,.064-.32v-.512c0-.128.064-.192.128-.32s.128-.192.128-.32c0-.064-.064-.192-.256-.32l-.576-.384c-.192-.128-.384-.192-.448-.256a3.793,3.793,0,0,1,.384-.256,3.547,3.547,0,0,0,.512-.384c.192-.128.256-.192.256-.256V-222a.909.909,0,0,1,.128-.384.909.909,0,0,0,.128-.384c0-.064.064-.192.064-.256s.064-.192.064-.256a.909.909,0,0,0,.128-.384c.064-.128.064-.256.128-.384v-.384c0-.064.064-.128.128-.32a2.27,2.27,0,0,1,.256-.576,2.72,2.72,0,0,0,.128-.7v-.128a1.7,1.7,0,0,0-.32-.384c-.128-.128-.256-.192-.32-.384a.883.883,0,0,0-.192-.256.684.684,0,0,0-.32-.192.483.483,0,0,0-.256-.064c-.064,0-.128-.064-.128-.192a.138.138,0,0,0-.128-.128.326.326,0,0,1-.256-.32c-.064-.064-.128-.192-.256-.32-.128-.192-.192-.256-.256-.256a8.572,8.572,0,0,0-1.279.064c-.448.064-.831.128-1.279.192l.576-.639-.064-.064a5.485,5.485,0,0,1-.831.192c-.384.128-.767.192-1.215.384a12.072,12.072,0,0,0-1.151.384,1.367,1.367,0,0,0-.639.384c.064.064.128.064.128.128a2.971,2.971,0,0,1,.576.192.686.686,0,0,1,.384.128.582.582,0,0,1,.064.512v1.087a5.6,5.6,0,0,1-.128,1.023c-.064.32-.064.7-.128,1.023a.483.483,0,0,0,.256.448,1.338,1.338,0,0,0-.256.384,1.088,1.088,0,0,0-.064.448v.9a3.743,3.743,0,0,1-.128.831,3.743,3.743,0,0,0-.128.831v1.151a6.918,6.918,0,0,1,0,1.151c0,.064-.064.128-.128.192l-.192.192c-.128.32-.192.576-.256.767,0,.192-.064.32-.064.448a1.338,1.338,0,0,1-.256.384,8.067,8.067,0,0,1-.831.576Z" transform="translate(-33.492 48.19)" fill="#fff"/>
      <g id="group-1" data-name="Group 18" transform="translate(1.791 -5.691)">
        <g id="Group_17" data-name="Group 17">
          <g id="Group_16" data-name="Group 16">
            <g id="Group_15" data-name="Group 15" clip-path="url(#clip-path-4)">
              <g id="Group_14" data-name="Group 14" transform="translate(4.414 10.717)">
                <g id="Group_13" data-name="Group 13">
                  <path id="Path_9" data-name="Path 9" d="M11.875,125.889c-.448-2.3-.959-4.54-1.215-6.842a99,99,0,0,1-.9-15.731,34.063,34.063,0,0,1,3.261-12.854,1.138,1.138,0,0,1,.448-.512c3.133-2.942,6.267-5.819,9.4-8.825a5.458,5.458,0,0,0,1.791-2.494,2.387,2.387,0,0,1,2.366-1.407c.831,0,1.663,0,2.494.064a.856.856,0,0,0,.9-.512C31.379,74.859,32.4,73,33.426,71.15a7.123,7.123,0,0,1,3.709-3.006c2.366-1.023,4.732-1.854,7.1-2.814a40.681,40.681,0,0,0,3.709-1.918C48.9,62.9,49.86,62.453,50.884,62c1.535-.7,2.814-.256,4.157.639,1.727,1.151,3.581,2.238,5.308,3.389.831.512,1.6,1.215,2.43,1.727.7.448,1.407.7,2.11,1.087a17.587,17.587,0,0,1,1.791,1.215c1.215,1.087,2.43,2.238,3.645,3.325.384.384.831.7,1.279,1.087.448-.9,1.855-.831,1.791-2.174.064-.064.064-.128.128-.128,1.471-.639,1.727-.448,2.11,1.087.128.512.32.959.512,1.6.064-.128.064-.064,0,0-.512.512-1.407,1.087-1.407,1.6a8.345,8.345,0,0,0,1.023,2.814,48.057,48.057,0,0,1,2.11,4.54,54.068,54.068,0,0,1,1.343,6.395c.256,1.343.448,2.686.639,3.965a3.113,3.113,0,0,1,.064.767c0,1.215-.192,1.407-1.471,1.407-.831-.064-1.663-.064-2.494-.064A.936.936,0,0,1,74.8,95.45a14.411,14.411,0,0,1-.9-2.814c-.128-.831.128-1.727.064-2.558a39.569,39.569,0,0,0-.192-4.732,5.273,5.273,0,0,0-.767-2.11c-.639-1.215-1.343-2.43-2.046-3.581-.384-.639-.9-1.215-.192-2.11-1.279,1.471-2.046-.064-3.133-.384a1.248,1.248,0,0,1,.064.448c1.023,3.261,2.174,6.459,3.07,9.72a50.828,50.828,0,0,1,.767,6.267c.128,1.087,11,2.046,11.83,2.942-1.087.576-11.127.448-14.2.959a1.972,1.972,0,0,0-1.215,0c-1.087.256-9.017,2.11-9.976,1.855-.256-.064,6.459-3.2,6.459-3.581a3.969,3.969,0,0,0-1.982-3.581c-2.11-1.471-4.221-2.878-6.842-3.261a5.483,5.483,0,0,0-3.773.576,6.606,6.606,0,0,1-4.093.959,4.338,4.338,0,0,0-4.093,1.6,12.748,12.748,0,0,1-2.366,2.174c-1.343,1.087-2.686,2.11-3.9,3.261a5.442,5.442,0,0,1-.384,1.087c-.767,1.6-1.663,3.133-2.366,4.8-.9,2.11-1.6,4.221-2.43,6.331a1.2,1.2,0,0,0,.128,1.215,33.349,33.349,0,0,0,6.906,6.842c-3.133-1.343-5.372-3.837-7.61-6.587-.831,2.494-2.238,4.6-2.3,7.1a18.115,18.115,0,0,1-1.6,6.331,1.47,1.47,0,0,0,.256,1.663,66.01,66.01,0,0,0,17.778,16.179c.256.128.448.32.7.448-.064.064-.064.128-.128.192-1.663-.9-3.325-1.727-4.924-2.686a53.921,53.921,0,0,1-9.528-7.034,44.076,44.076,0,0,1-5.819-7.1.937.937,0,0,1-.128-.7c1.343-2.814,1.343-5.947,1.855-8.953a22.225,22.225,0,0,1,2.366-6.011,1.354,1.354,0,0,0-.128-1.663c-1.471-1.918-2.814-3.9-4.221-5.883a1.529,1.529,0,0,1-.192-1.087c1.087-6.011,2.238-12.022,3.389-18.033.192-.9.064-1.855,1.023-2.494,0-.064-.064-.192-.064-.256L27.67,81c-.448-.064-.959-.128-1.535-.256-.064,1.151-1.151,1.471-2.046,1.918-2.366,1.087-4.093,3.006-5.883,4.8a3.649,3.649,0,0,1-.9.831c-3.709,2.494-4.732,6.459-5.5,10.424-1.535,8.761-1.023,17.586.32,26.347a1.088,1.088,0,0,0,.064.448C12.067,125.889,11.939,125.889,11.875,125.889ZM59.389,88.607c.064-.128.128-.192.192-.32a8.335,8.335,0,0,0-1.279-.959,5.884,5.884,0,0,1-2.878-2.686,1.288,1.288,0,0,0-1.407-.7c-.576.064-1.215.064-1.855.192a13.117,13.117,0,0,1-4.988-.192,11.447,11.447,0,0,0-2.558-.128,8.775,8.775,0,0,1-6.395-1.663,6.009,6.009,0,0,0-2.046-.959,1.675,1.675,0,0,0-1.343.256,34.05,34.05,0,0,0-3.006,2.3,2.785,2.785,0,0,0-.639,1.023c-.576,2.366-1.151,4.8-1.727,7.226-.831,3.389-1.6,6.842-2.43,10.232a1.619,1.619,0,0,0,.128,1.087c.512.9,1.023,1.727,1.6,2.558.7,1.087,1.407,2.11,2.3,3.325a28.579,28.579,0,0,0,1.279-3.709,22.537,22.537,0,0,1,2.814-7.034,1.5,1.5,0,0,0-.128-2.238c-.831-.9-.767-1.151.192-1.982.192-.192.576-.128.831-.192.192-.064.384-.064.512-.192a14.613,14.613,0,0,1,4.988-3.581c1.855-.7,3.645-1.727,5.5-2.558a8.317,8.317,0,0,1,2.686-.9,14.6,14.6,0,0,1,5.947.831C56.895,87.968,58.174,88.224,59.389,88.607ZM62.778,72.94c-.576-.448-1.023-.767-1.471-1.087-1.215-1.087-2.494-2.11-3.709-3.261a20.179,20.179,0,0,0-2.75-2.43,4.677,4.677,0,0,0-4.732-.256c-4.221,1.663-8.377,3.581-12.662,5.244-3.006,1.151-4.285,3.837-6.267,6.011a33.875,33.875,0,0,0,4.412.064.789.789,0,0,0,.512-.256,46.33,46.33,0,0,0,6.842-6.395c.128-.128.384-.32.448-.256.767.384,1.023-.256,1.343-.639a10.934,10.934,0,0,0,.7-.9c.128.384.192.639.256.9.384-.256.767-.448,1.087-.7a5.624,5.624,0,0,0,.384.639,3.1,3.1,0,0,0,2.3,1.854c1.791.448,3.581.959,5.308,1.471.064,0,.128-.064.192-.064-.064-.256-.064-.512-.128-.959,1.663.448,3.261.767,4.732,1.151A4.265,4.265,0,0,0,62.778,72.94ZM39.884,77.672c4.8.831,9.336,1.663,13.941,2.43-.128-.831-.128-1.727-.9-2.238v-.32c1.023.639,1.918,1.151,2.814,1.791a.732.732,0,0,0,1.215-.32,16.022,16.022,0,0,0,.7-1.471,9.845,9.845,0,0,0-2.238-.959c-2.494-.384-4.988-.639-7.482-.959a2.433,2.433,0,0,1-1.087-.512c-.7-.512-1.407-1.087-2.11-1.663-.064.192-.256.32-.192.448.064.7-.384,1.023-.9,1.343C42.442,75.946,41.291,76.713,39.884,77.672Zm19.824.32c.256,1.854.639,3.645,2.11,4.988a7.187,7.187,0,0,1,2.238,2.366,9.461,9.461,0,0,0,.831,1.343c1.023,1.535,2.046,3.07,3.07,4.668.064-.064.128-.064.192-.128l-.192-.767c-.448-1.215-.959-2.43-1.407-3.645a23.75,23.75,0,0,0-4.093-7.226A3.093,3.093,0,0,0,59.708,77.992Z" transform="translate(-9.702 -61.659)" fill="#fff"/>
                </g>
              </g>
            </g>
          </g>
        </g>
      </g>
      <g id="group-2" data-name="Group 19" transform="translate(54.612 43.357)">
        <path id="Path_11" data-name="Path 11" d="M144.643,125.654c1.791-.576,3.581-1.151,5.627-1.854-.192.512-.256.7-.384,1.087.9-.128,1.791-.256,2.622-.32a1.707,1.707,0,0,1,1.151.192c1.023.959,2.046,1.982,3.006,3.07a1.614,1.614,0,0,1,.192,1.343c-.384,1.6-.767,3.2-1.279,4.732a15.116,15.116,0,0,1-1.535,2.43c-.064-.192-.064-.064,0-.064,1.918.576,1.6,2.046,1.343,3.453a25.044,25.044,0,0,1-1.343,5.436c-.767,1.727-.831,3.581-1.407,5.244-.064.064-.128.192-.192.256h-.384c-.064-2.942-.128-5.883-.256-8.761a16.13,16.13,0,0,0-.256-3.07c-.128-.448-.959-.7-1.471-1.023-.256.384-.639.7-.639,1.087a30.838,30.838,0,0,0-.064,4.86c.064.512.639,1.023,1.151,1.791-2.43-.128-4.732-.192-7.034-.32a.883.883,0,0,1-.192-.256c1.918-.576,1.535-2.494,2.43-3.709a.948.948,0,0,0,.064-.448c.128-2.174.192-4.412.32-6.587.128-2.11.192-4.285.32-6.395.064-.9-.128-1.471-1.151-1.6a.955.955,0,0,1-.448-.192A.383.383,0,0,1,144.643,125.654Zm6.075,8.7c2.814-2.3,3.2-4.6.9-5.883-.128.7-.256,1.407-.384,2.046a8.674,8.674,0,0,1-.576-1.471,4.105,4.105,0,0,0-.639-.831,3.077,3.077,0,0,0-.512,1.023c-.128,1.215-.128,2.43-.192,3.645v2.174h.256c.256-.448.448-.9.767-1.535A3.118,3.118,0,0,1,150.718,134.351Z" transform="translate(-106.274 -122.393)" fill="#fff"/>
        <path id="Path_12" data-name="Path 12" d="M137.636,123a3.746,3.746,0,0,1-.576.7c-1.343.7-1.471,1.855-1.535,3.133-.192,3.837-.384,7.61-.7,11.447a22.608,22.608,0,0,1-1.023,3.965c-.192-.128-.384-.256-.639-.448-.256.831-.448,1.663-.7,2.43h-.384c-.192-1.982-.448-4.029-.7-6.075-.192.128-.384.32-.7.576-.064-.192-.192-.448-.384-.959-.512.9-.9,1.6-1.407,2.43-.064-.767-.064-1.407-.128-2.238-.767,1.854-.448,3.773-1.918,5.436-.064-.9-.064-1.535-.128-2.494-.959,1.279-1.791,2.366-2.686,3.581a8.679,8.679,0,0,1-.064-1.791c0-.767.192-1.6-1.151-1.535,2.622-1.215,2.622-3.709,3.2-5.819.448-1.471,1.023-2.878,1.471-4.348a15.694,15.694,0,0,1,.512-1.854c.384-1.087.7-2.238,1.151-3.325.448-.959.384-1.471-.576-1.918-.384-.192-.7-.384-1.087-.576a.577.577,0,0,0,.064-.32Zm-4.924,3.325c-.128,0-.256-.064-.384-.064-.831,2.814-1.6,5.627-2.43,8.441,1.854.32,2.238.064,2.3-1.791.064-.7.128-1.407.192-2.046C132.456,129.395,132.584,127.86,132.712,126.325Z" transform="translate(-98.883 -122.105)" fill="#fff"/>
        <path id="Path_13" data-name="Path 13" d="M115.6,121.6c-.384,2.3-.7,4.412-1.087,6.523-.064.064-.128.064-.256.128l-.959-1.918c-.128.192-.32.384-.512.7-.32-.767-.639-1.471-1.023-2.238-.192.384-.32.576-.448.9-.256-.256-.576-.448-1.087-.9a24.055,24.055,0,0,0,.192,6.459c1.727-.064,1.215-1.918,2.43-2.558.192,2.494.32,4.924.512,7.226a.576.576,0,0,1-.32.064,15.3,15.3,0,0,0-.831-1.343,5.732,5.732,0,0,0-1.151-.959,6.018,6.018,0,0,0,.831,6.011,2.19,2.19,0,0,0,1.855-2.11,12.85,12.85,0,0,1,.576-2.238c1.023,1.535,1.279,5.564.831,8.185-1.023-.448-2.046-.959-3.07-1.471-1.215-.639-1.215-.639-1.791.639a3.671,3.671,0,0,1-.256.448c-1.023-1.854-2.622-.831-4.221-.831.192-.448.256-.831.512-1.023a2.456,2.456,0,0,0,.767-2.43c-.192-4.029-.32-7.994-.448-12.022a3.716,3.716,0,0,0-2.046-3.453C108.117,122.176,111.826,122.112,115.6,121.6Z" transform="translate(-92.322 -121.6)" fill="#fff"/>
        <path id="Path_14" data-name="Path 14" d="M90.644,147.833c-.192-.767-.32-1.6-.576-2.366a80.277,80.277,0,0,1-2.558-15.028c-.128-1.535-.128-3.07-1.918-3.709-.064,0-.064-.192-.192-.448,3.645-.639,7.162-1.343,10.871-1.982-.192,1.982-.384,3.773-.576,5.755-.32-.384-.7-.576-.831-.959a1.628,1.628,0,0,0-2.494-.831,2.129,2.129,0,0,0-1.343,2.43l.384,3.261c1.663-.256,1.215-1.982,2.43-2.686.192,2.494.384,4.86.576,7.226-.128,0-.192.064-.32.064a8.019,8.019,0,0,0-1.023-1.535,2.571,2.571,0,0,0-1.023-.512,3.015,3.015,0,0,0-.384.959c.064,1.215.128,2.43.192,3.581A12.68,12.68,0,0,1,90.644,147.833Z" transform="translate(-85.4 -122.573)" fill="#fff"/>
      </g>
      <g id="group-3" data-name="Group 25" transform="translate(80.831 -5.691)">
        <g id="Group_24" data-name="Group 24">
          <g id="Group_23" data-name="Group 23">
            <g id="Group_22" data-name="Group 22" clip-path="url(#clip-path-5)">
              <g id="Group_21" data-name="Group 21" transform="translate(0.064 11.165)">
                <g id="Group_20" data-name="Group 20">
                  <path id="Path_15" data-name="Path 15" d="M197.674,126.142a1.088,1.088,0,0,1,.064-.448c1.279-8.761,1.854-17.586.32-26.347-.7-4.029-1.727-7.93-5.5-10.424a11.431,11.431,0,0,1-.9-.831c-1.791-1.791-3.517-3.709-5.883-4.8-.959-.448-2.046-.767-2.046-1.918-.576.064-1.023.192-1.535.256l-2.3.192c0,.064-.064.192-.064.256.9.576.831,1.6,1.023,2.494,1.151,6.011,2.3,12.022,3.389,18.033a1.658,1.658,0,0,1-.192,1.087c-1.343,1.982-2.75,3.965-4.221,5.883a1.341,1.341,0,0,0-.128,1.663,22.225,22.225,0,0,1,2.366,6.011c.512,3.006.512,6.139,1.854,8.953a.937.937,0,0,1-.128.7,44.077,44.077,0,0,1-5.819,7.1,60.066,60.066,0,0,1-9.528,7.034c-1.6.959-3.261,1.791-4.924,2.686-.064-.064-.064-.128-.128-.192.256-.128.448-.32.7-.448a64.984,64.984,0,0,0,17.778-16.179,1.47,1.47,0,0,0,.256-1.663,17.769,17.769,0,0,1-1.6-6.331c-.128-2.558-1.471-4.668-2.3-7.1-2.238,2.75-4.476,5.244-7.61,6.651a35.008,35.008,0,0,0,6.906-6.842,1.072,1.072,0,0,0,.128-1.215c-.831-2.11-1.535-4.285-2.43-6.331-.7-1.663-1.6-3.2-2.366-4.8a11.328,11.328,0,0,1-.384-1.087,50.087,50.087,0,0,0-3.9-3.261,15.406,15.406,0,0,1-2.366-2.174,4.154,4.154,0,0,0-4.093-1.6,6.507,6.507,0,0,1-4.093-.959,5.539,5.539,0,0,0-3.773-.576c-2.622.384-4.732,1.791-6.842,3.261a3.848,3.848,0,0,0-1.982,3.581c0,.384,6.779,3.453,6.459,3.581-.959.32-8.825-1.6-9.976-1.854a2.6,2.6,0,0,0-1.215,0c-3.07-.512-13.173-.384-14.2-.959.831-.9,11.7-1.854,11.83-2.942a34.266,34.266,0,0,1,.767-6.267c.831-3.261,2.046-6.459,3.07-9.72a.948.948,0,0,0,.064-.448c-1.087.256-1.854,1.854-3.133.384.639.9.192,1.471-.192,2.11-.7,1.151-1.407,2.366-2.046,3.581a6.457,6.457,0,0,0-.767,2.11c-.128,1.535-.128,3.133-.192,4.732a17.092,17.092,0,0,1,.064,2.558,23.868,23.868,0,0,1-.9,2.814,1.059,1.059,0,0,1-1.151.831,16.252,16.252,0,0,0-2.494.064c-1.215.064-1.407-.128-1.471-1.407a3.113,3.113,0,0,1,.064-.767c.192-1.343.384-2.686.639-3.965A56.9,56.9,0,0,1,132,84.511a32.319,32.319,0,0,1,2.11-4.54,9.328,9.328,0,0,0,1.023-2.814c0-.512-.9-1.023-1.407-1.6-.064-.064-.064-.128,0,0a11.3,11.3,0,0,0,.512-1.6c.32-1.535.639-1.727,2.11-1.087l.128.128c-.128,1.343,1.343,1.215,1.791,2.174a11.334,11.334,0,0,0,1.279-1.087c1.215-1.087,2.43-2.238,3.645-3.325a8.818,8.818,0,0,1,1.791-1.215c.7-.384,1.471-.7,2.11-1.087.831-.512,1.6-1.215,2.43-1.727,1.727-1.151,3.581-2.238,5.308-3.389,1.343-.9,2.622-1.343,4.157-.639.959.448,1.982.9,2.942,1.407,1.215.639,2.43,1.343,3.709,1.918,2.366,1.023,4.732,1.791,7.1,2.814a6.886,6.886,0,0,1,3.709,3.006c1.023,1.854,2.046,3.709,3.006,5.627a.727.727,0,0,0,.9.512c.831-.064,1.663-.064,2.494-.064a2.33,2.33,0,0,1,2.366,1.407A5.587,5.587,0,0,0,187,81.826c3.07,2.942,6.267,5.883,9.4,8.825a3.654,3.654,0,0,1,.448.512,34.68,34.68,0,0,1,3.261,12.854,100.239,100.239,0,0,1-.9,15.8c-.256,2.3-.767,4.54-1.215,6.842C197.8,126.142,197.738,126.142,197.674,126.142ZM154.062,87.773a14.45,14.45,0,0,1,5.947-.831,8.317,8.317,0,0,1,2.686.9c1.855.831,3.645,1.854,5.5,2.558a14.025,14.025,0,0,1,4.988,3.581c.128.128.32.128.512.192a3.172,3.172,0,0,1,.831.192c.959.831,1.023,1.087.192,1.982a1.605,1.605,0,0,0-.128,2.238,23.845,23.845,0,0,1,2.814,7.034c.32,1.151.831,2.3,1.279,3.709.831-1.215,1.535-2.3,2.3-3.325a21.333,21.333,0,0,0,1.6-2.558,1.619,1.619,0,0,0,.128-1.087c-.767-3.389-1.6-6.842-2.43-10.232-.576-2.43-1.087-4.8-1.727-7.226a2.149,2.149,0,0,0-.639-1.023,34.047,34.047,0,0,0-3.006-2.3,1.721,1.721,0,0,0-1.343-.256,6.009,6.009,0,0,0-2.046.959,8.775,8.775,0,0,1-6.395,1.663,11.447,11.447,0,0,0-2.558.128,14.549,14.549,0,0,1-4.988.192,16.512,16.512,0,0,0-1.855-.192,1.33,1.33,0,0,0-1.407.7,5.884,5.884,0,0,1-2.878,2.686,8.335,8.335,0,0,0-1.279.959c.064.128.128.192.192.32A22.5,22.5,0,0,0,154.062,87.773Zm-4.029-14.388c1.535-.448,3.07-.767,4.732-1.151-.064.448-.064.7-.128.959.064,0,.128.064.192.064,1.791-.512,3.517-1.023,5.308-1.471a3.1,3.1,0,0,0,2.3-1.854,2.394,2.394,0,0,1,.384-.639,10.416,10.416,0,0,1,1.087.7,4.709,4.709,0,0,0,.256-.9,10.932,10.932,0,0,0,.7.9c.384.384.639,1.023,1.343.639.064-.064.32.128.448.256a38.125,38.125,0,0,0,6.842,6.395.789.789,0,0,0,.512.256c1.471,0,2.878,0,4.412-.064-1.982-2.174-3.261-4.86-6.267-6.011-4.285-1.663-8.441-3.581-12.662-5.244a4.677,4.677,0,0,0-4.732.256,16.627,16.627,0,0,0-2.75,2.43c-1.151,1.151-2.43,2.174-3.709,3.261a14.653,14.653,0,0,1-1.471,1.087A5.044,5.044,0,0,0,150.033,73.384Zm16.115,1.982c-.512-.32-.959-.639-.9-1.343,0-.128-.128-.256-.192-.448-.7.576-1.407,1.151-2.11,1.663a2.434,2.434,0,0,1-1.087.512c-2.494.32-4.988.576-7.482.959a9.845,9.845,0,0,0-2.238.959,10.651,10.651,0,0,0,.7,1.471.732.732,0,0,0,1.215.32c.9-.576,1.791-1.151,2.814-1.791,0,.256.064.32,0,.32-.767.576-.767,1.407-.9,2.238,4.54-.767,9.145-1.6,13.941-2.43C168.514,76.965,167.363,76.2,166.148,75.367Zm-18.865,4.348a23.185,23.185,0,0,0-4.093,7.226c-.448,1.215-.959,2.43-1.407,3.645a3.373,3.373,0,0,0-.192.767c.064.064.128.064.192.128,1.023-1.535,2.046-3.07,3.07-4.668a15.3,15.3,0,0,0,.831-1.343,6.621,6.621,0,0,1,2.238-2.366c1.471-1.343,1.854-3.133,2.11-4.988A3.836,3.836,0,0,0,147.283,79.715Z" transform="translate(-126.5 -62.359)" fill="#fff"/>
                </g>
              </g>
            </g>
          </g>
        </g>
      </g>
    </g>
  </g>
</svg>
